<?xml version="1.0" encoding="UTF-8" standalone="no"?>
<svg xmlns:inkscape="http://www.inkscape.org/namespaces/inkscape" xmlns:sodipodi="http://sodipodi.sourceforge.net/DTD/sodipodi-0.dtd" xmlns="http://www.w3.org/2000/svg" xmlns:svg="http://www.w3.org/2000/svg" width="2497.4963" height="2497.666" viewBox="0 0 255.74363 255.761" preserveAspectRatio="xMinYMin meet" version="1.1" id="svg6" sodipodi:docname="363c5bec639c13f8f614802eaabb3fb5.svg"><metadata><meta name="Producer" content="Online-Convert"/></metadata>
  <defs id="defs10"/>
  <sodipodi:namedview id="namedview8" pagecolor="#ffffff" bordercolor="#666666" borderopacity="1.0" inkscape:pageshadow="2" inkscape:pageopacity="0.0" inkscape:pagecheckerboard="0"/>
  <path d="m 245.235,153.292 c 14.012,-14.012 14.011,-36.811 0,-50.823 -6.787,-6.788 -15.812,-10.525 -25.411,-10.525 -2.28,0 -4.523,0.208 -6.712,0.617 9.538,-6.524 15.72,-17.495 15.72,-29.694 0,-19.816 -16.122,-35.937 -35.938,-35.937 -12.223,0 -23.213,6.205 -29.733,15.776 2.157,-11.377 -1.226,-23.537 -9.87,-32.18 C 146.506,3.738 137.48,0 127.882,0 118.282,0 109.258,3.738 102.47,10.526 93.827,19.169 90.444,31.329 92.6,42.706 86.081,33.136 75.091,26.93 62.867,26.93 c -19.815,0 -35.936,16.12 -35.936,35.937 0,12.2 6.18,23.17 15.718,29.694 a 36.487,36.487 0 0 0 -6.711,-0.617 c -9.6,0 -18.624,3.738 -25.411,10.526 C 3.738,109.257 0,118.282 0,127.88 c 0,9.6 3.738,18.624 10.526,25.412 6.787,6.787 15.812,10.526 25.41,10.526 2.28,0 4.523,-0.208 6.712,-0.618 -9.538,6.525 -15.718,17.496 -15.718,29.695 0,19.815 16.12,35.936 35.936,35.936 12.224,0 23.215,-6.206 29.734,-15.776 -2.157,11.378 1.226,23.538 9.87,32.18 6.787,6.788 15.812,10.526 25.41,10.526 9.6,0 18.625,-3.738 25.412,-10.526 8.643,-8.643 12.026,-20.803 9.869,-32.18 6.52,9.57 17.51,15.776 29.733,15.776 19.816,0 35.937,-16.12 35.937,-35.936 0,-12.2 -6.18,-23.17 -15.719,-29.695 2.189,0.41 4.433,0.618 6.712,0.618 9.599,0 18.624,-3.739 25.411,-10.526" id="path2"/>
  <path d="m 234.391,113.306 c -8.049,-8.048 -21.099,-8.048 -29.148,0 h -42.184 l 29.829,-29.828 c 11.383,0 20.61,-9.228 20.61,-20.611 0,-11.383 -9.227,-20.612 -20.61,-20.612 -11.384,0 -20.611,9.229 -20.611,20.612 L 142.448,92.696 V 50.511 c 8.049,-8.049 8.049,-21.099 0,-29.148 -8.05,-8.05 -21.1,-8.05 -29.149,0 -8.049,8.05 -8.049,21.1 0,29.148 V 92.696 L 83.471,62.866 c 0,-11.382 -9.228,-20.61 -20.611,-20.61 -11.383,0 -20.611,9.228 -20.611,20.61 0,11.384 9.228,20.612 20.61,20.612 l 29.83,29.828 H 50.504 c -8.05,-8.049 -21.1,-8.048 -29.15,0 -8.048,8.05 -8.048,21.1 0,29.15 8.05,8.048 21.1,8.048 29.15,0 H 92.687 L 62.86,172.283 c -11.383,0 -20.611,9.227 -20.611,20.61 0,11.384 9.228,20.612 20.61,20.612 11.384,0 20.612,-9.228 20.612,-20.611 l 29.828,-29.829 v 42.184 c -8.049,8.049 -8.049,21.1 0,29.149 8.05,8.049 21.1,8.049 29.15,0 8.048,-8.05 8.048,-21.1 0,-29.15 v -42.183 l 29.828,29.829 c 0,11.383 9.227,20.61 20.61,20.61 11.384,0 20.612,-9.227 20.612,-20.61 0,-11.384 -9.228,-20.611 -20.611,-20.611 l -29.83,-29.829 h 42.185 c 8.05,8.05 21.1,8.05 29.148,0 8.05,-8.049 8.05,-21.1 0,-29.149" fill="#ffb13b" id="path4"/>
</svg>
